<?xml version="1.0" encoding="UTF-8" standalone="no"?>
<!-- Created with Inkscape (http://www.inkscape.org/) -->

<svg
   xmlns:sketch="http://www.bohemiancoding.com/sketch/ns"
   xmlns:dc="http://purl.org/dc/elements/1.1/"
   xmlns:cc="http://creativecommons.org/ns#"
   xmlns:rdf="http://www.w3.org/1999/02/22-rdf-syntax-ns#"
   xmlns:svg="http://www.w3.org/2000/svg"
   xmlns="http://www.w3.org/2000/svg"
   xmlns:sodipodi="http://sodipodi.sourceforge.net/DTD/sodipodi-0.dtd"
   xmlns:inkscape="http://www.inkscape.org/namespaces/inkscape"
   width="210mm"
   height="297mm"
   viewBox="0 0 744.09448819 1052.3622047"
   id="svg3414"
   version="1.1"
   inkscape:version="0.91 r13725"
   sodipodi:docname="logo_cryptopus2.svg">
  <defs
     id="defs3416">
    <filter
       style="color-interpolation-filters:sRGB"
       inkscape:label="Invert"
       id="filter4701-9-2">
      <feColorMatrix
         values="1 0 0 0 0 0 1 0 0 0 0 0 1 0 0 -0.21 -0.72 -0.07 2 0 "
         result="color2"
         id="feColorMatrix4703-7-4" />
    </filter>
  </defs>
  <sodipodi:namedview
     id="base"
     pagecolor="#ffffff"
     bordercolor="#666666"
     borderopacity="1.0"
     inkscape:pageopacity="0.0"
     inkscape:pageshadow="2"
     inkscape:zoom="1.4"
     inkscape:cx="399.69125"
     inkscape:cy="638.15061"
     inkscape:document-units="px"
     inkscape:current-layer="layer1"
     showgrid="false"
     inkscape:window-width="1916"
     inkscape:window-height="1161"
     inkscape:window-x="3840"
     inkscape:window-y="18"
     inkscape:window-maximized="0" />
  <metadata
     id="metadata3419">
    <rdf:RDF>
      <cc:Work
         rdf:about="">
        <dc:format>image/svg+xml</dc:format>
        <dc:type
           rdf:resource="http://purl.org/dc/dcmitype/StillImage" />
        <dc:title></dc:title>
      </cc:Work>
    </rdf:RDF>
  </metadata>
  <g
     inkscape:label="Layer 1"
     inkscape:groupmode="layer"
     id="layer1">
    <rect
       style="fill:#ff6600;fill-rule:evenodd;stroke:none;stroke-width:0.9684211px;stroke-linecap:butt;stroke-linejoin:miter;stroke-opacity:1"
       id="rect3422"
       width="117.30984"
       height="9.9065399"
       x="301.81714"
       y="435.84277" />
    <rect
       style="fill:#ff6600;fill-rule:evenodd;stroke:none;stroke-width:0.9684211px;stroke-linecap:butt;stroke-linejoin:miter;stroke-opacity:1"
       id="rect3422-9"
       width="117.30984"
       height="9.9065399"
       x="301.81714"
       y="470.83276" />
    <rect
       style="fill:#ff6600;fill-rule:evenodd;stroke:none;stroke-width:0.9684211px;stroke-linecap:butt;stroke-linejoin:miter;stroke-opacity:1"
       id="rect3422-9-2"
       width="117.30984"
       height="9.9065399"
       x="301.81714"
       y="453.33777" />
    <rect
       style="fill:#ff6600;fill-rule:evenodd;stroke:none;stroke-width:0.9684211px;stroke-linecap:butt;stroke-linejoin:miter;stroke-opacity:1"
       id="rect3422-5"
       width="117.30984"
       height="9.9065399"
       x="301.81714"
       y="418.34778" />
    <rect
       style="fill:#ff6600;fill-rule:evenodd;stroke:none;stroke-width:0.9684211px;stroke-linecap:butt;stroke-linejoin:miter;stroke-opacity:1"
       id="rect3422-9-2-4"
       width="117.30984"
       height="9.9065399"
       x="301.81714"
       y="400.85284" />
    <path
       style="fill:#ff6600;stroke:none"
       d="m 360.47206,323.7913 a 50.345294,72.641064 0 0 0 -50.34529,72.64107 l 8.67572,0 a 41.954411,66.587641 0 0 1 41.66957,-59.53116 41.954411,66.587641 0 0 1 41.70597,59.53116 l 8.63933,0 a 50.345294,72.641064 0 0 0 -50.3453,-72.64107 z"
       id="path4292"
       inkscape:connector-curvature="0" />
    <path
       style="display:inline;fill:#ffcc00;fill-opacity:1;fill-rule:evenodd;stroke:none;stroke-width:1;filter:url(#filter4701-9-2)"
       inkscape:connector-curvature="0"
       sketch:type="MSShapeGroup"
       id="logo_cryptopus-1"
       d="m 128.66707,114.67311 c 5.14536,-0.67642 9.89707,-3.01235 13.62,-6.74513 8.83024,-8.853627 9.26195,-23.139157 0.98487,-32.523947 -0.45951,-0.52089 -1.24975,-0.57664 -1.77366,-0.12619 -0.52682,0.449 -0.59853,1.23693 -0.16097,1.77396 3.98927,4.90515 3.62634,11.98482 -0.84585,16.46886 -2.31952,2.32418 -5.40147,3.60513 -8.67952,3.60513 -3.27805,0 -6.36146,-1.28095 -8.68097,-3.60513 -1.11366,-1.11954 -1.99025,-2.42396 -2.60781,-3.88979 2.43805,-5.59917 3.72586,-11.88358 3.72586,-18.21053 0,-22.00641 -6.56781,-39.910281 -33.864882,-39.910281 -25.40342,0 -33.86195,17.903871 -33.86195,39.910281 0,6.32695 1.2878,12.61136 3.72585,18.21053 -0.61756,1.46583 -1.49415,2.77025 -2.60927,3.88979 -2.31805,2.32418 -5.40146,3.60513 -8.67951,3.60513 -3.27951,0 -6.36146,-1.28095 -8.68097,-3.60513 -4.4722,-4.48404 -4.83513,-11.56371 -0.84293,-16.46886 0.4361,-0.53703 0.36293,-1.3235 -0.1639,-1.77249 -0.52537,-0.45046 -1.31561,-0.39323 -1.7722,0.12766 -8.27854,9.38331 -7.84537,23.67178 0.98342,32.525407 3.72292,3.73278 8.47609,6.07311 13.62,6.74953 -3.53561,2.16866 -6.67025,4.92717 -9.33513,8.20069 -5.46439,6.71432 -8.47463,15.22752 -8.47463,23.94029 0,11.11472 4.90536,19.3154 13.46049,26.40241 0.23561,0.19662 0.52244,0.63534 0.80926,0.63534 l 0.0249,0 c 0.70244,0 1.27025,-0.91119 1.27025,-1.61549 0,-0.38003 -0.16683,-0.92879 -0.43025,-1.16209 -3.6717,-4.66892 -5.61073,-10.33265 -5.61073,-16.26637 0,-10.66133 6.8722,-17.96257 17.10439,-21.90517 l 0.64244,-0.25678 c 1.55707,-0.57664 4.73561,-1.75927 8.27268,-3.60805 -2.16439,5.96452 -6.89122,15.12628 -7.76634,19.52081 -3.48731,17.5033 7.98439,33.31775 25.44,36.81577 1.19122,0.24063 2.40586,0.41084 3.61171,0.51208 2.12341,0.18048 4.27756,0.1482 6.39951,-0.0954 8.315122,-0.95814 16.009762,-3.9837 21.297072,-10.519 0.37025,-0.4578 0.37903,-1.11221 0.0205,-1.57881 -0.35853,-0.46953 -0.99073,-0.62653 -1.52634,-0.3859 -5.60488,2.51641 -12.1361,5.76352 -18.172682,4.55741 -5.82,-1.1665 -12.85464,-5.27638 -15.48732,-9.76188 -1.79415,-4.06293 -2.04439,-9.8866 -0.98634,-15.19232 2.01512,-10.1155 11.58146,-23.90067 21.218052,-28.39498 5.75707,4.58235 12.66293,7.13103 15.32195,8.11117 l 0.64537,0.2421 c 10.22926,3.94261 17.10292,11.20863 17.10292,21.86995 0,6.00269 -1.98439,11.65909 -5.73658,16.35882 -0.4083,0.51061 -0.36439,1.24573 0.0995,1.70352 0.4639,0.45779 1.19854,0.48861 1.69902,0.0734 8.55513,-7.08701 13.46049,-14.97956 13.46049,-26.09574 0,-8.7113 -3.00878,-17.20983 -8.47463,-23.92269 -2.66342,-3.27352 -5.79805,-6.02322 -9.33512,-8.19188 l 0,0 z M 96.246578,94.089973 c 0.06,0.12618 0.0512,0.2509 -0.0249,0.37122 -0.0746,0.11885 -0.20634,0.1658 -0.34537,0.1658 l -10.98146,0 c -0.14049,0 -0.27219,-0.047 -0.34683,-0.1658 -0.0746,-0.11885 -0.0849,-0.25678 -0.0249,-0.38443 l 2.70147,-8.89031 c -1.52342,-1.20318 -3.98635,-4.21552 -3.98635,-6.53531 0,-3.94701 3.23708,-7.76489 7.25561,-7.76489 4.01854,0 7.25561,3.81935 7.25561,7.76783 0,2.29484 -2.2917,5.28958 -4.15024,6.68497 l 2.64732,8.75092 0,0 z m -6.75512,-32.16593 c 0,2.82747 -2.51269,5.12084 -5.6122,5.12084 -3.09805,0 -5.61073,-2.29337 -5.61073,-5.12084 0,-2.82747 2.51268,-5.12084 5.61073,-5.12084 3.09951,0 5.6122,2.29337 5.6122,5.12084 l 0,0 z m 11.323902,1.03004 c 0,2.22881 -2.280002,4.03651 -5.091222,4.03651 -2.81268,0 -5.09122,-1.8077 -5.09122,-4.03651 0,-2.23028 2.27854,-4.03652 5.09122,-4.03652 2.81122,0 5.091222,1.80624 5.091222,4.03652 l 0,0 z m -12.954152,-0.40938 c 0,1.22519 -0.99073,2.21855 -2.21268,2.21855 -1.22195,0 -2.21415,-0.99336 -2.21415,-2.21855 0,-1.22665 0.9922,-2.22 2.21415,-2.22 1.22195,0 2.21268,0.99335 2.21268,2.22 l 0,0 z m 8.56976,1.01537 c 0,1.24866 -1.0083,2.25963 -2.25366,2.25963 -1.2439,0 -2.2522,-1.01097 -2.2522,-2.25963 0,-1.2472 1.0083,-2.25816 2.2522,-2.25816 1.24536,0 2.25366,1.01096 2.25366,2.25816 l 0,0 z"
       transform="matrix(0.79655257,0,0,0.70696851,288.47547,349.46296)" />
  </g>
</svg>
