<?xml version="1.0" encoding="UTF-8" standalone="no"?>
<svg width="161px" height="211px" viewBox="0 0 161 211" version="1.1" xmlns="http://www.w3.org/2000/svg" xmlns:xlink="http://www.w3.org/1999/xlink" xmlns:sketch="http://www.bohemiancoding.com/sketch/ns">
    <!-- Generator: Sketch 3.1.1 (8761) - http://www.bohemiancoding.com/sketch -->
    <title>logo_cryptopus</title>
    <desc>Created with Sketch.</desc>
    <defs></defs>
    <g id="Page-1" stroke="none" stroke-width="1" fill="none" fill-rule="evenodd" sketch:type="MSPage">
        <g id="Landscape" sketch:type="MSArtboardGroup" transform="translate(-546.000000, -99.000000)" fill="#1A140F">
            <path d="M678.706525,212.356 C685.738525,211.434 692.232525,208.25 697.320525,203.162 C709.388525,191.094 709.978525,171.622 698.666525,158.83 C698.038525,158.12 696.958525,158.044 696.242525,158.658 C695.522525,159.27 695.424525,160.344 696.022525,161.076 C701.474525,167.762 700.978525,177.412 694.866525,183.524 C691.696525,186.692 687.484525,188.438 683.004525,188.438 C678.524525,188.438 674.310525,186.692 671.140525,183.524 C669.618525,181.998 668.420525,180.22 667.576525,178.222 C670.908525,170.59 672.668525,162.024 672.668525,153.4 C672.668525,123.404 663.692525,99 626.386525,99 C591.668525,99 580.108525,123.404 580.108525,153.4 C580.108525,162.024 581.868525,170.59 585.200525,178.222 C584.356525,180.22 583.158525,181.998 581.634525,183.524 C578.466525,186.692 574.252525,188.438 569.772525,188.438 C565.290525,188.438 561.078525,186.692 557.908525,183.524 C551.796525,177.412 551.300525,167.762 556.756525,161.076 C557.352525,160.344 557.252525,159.272 556.532525,158.66 C555.814525,158.046 554.734525,158.124 554.110525,158.834 C542.796525,171.624 543.388525,191.1 555.454525,203.168 C560.542525,208.256 567.038525,211.446 574.068525,212.368 C569.236525,215.324 564.952525,219.084 561.310525,223.546 C553.842525,232.698 549.728525,244.302 549.728525,256.178 C549.728525,271.328 556.432525,282.506 568.124525,292.166 C568.446525,292.434 568.838525,293.032 569.230525,293.032 L569.264525,293.032 C570.224525,293.032 571.000525,291.79 571.000525,290.83 C571.000525,290.312 570.772525,289.564 570.412525,289.246 C565.394525,282.882 562.744525,275.162 562.744525,267.074 C562.744525,252.542 572.136525,242.59 586.120525,237.216 L586.998525,236.866 C589.126525,236.08 593.470525,234.468 598.304525,231.948 C595.346525,240.078 588.886525,252.566 587.690525,258.556 C582.924525,282.414 598.602525,303.97 622.458525,308.738 C624.086525,309.066 625.746525,309.298 627.394525,309.436 C630.296525,309.682 633.240525,309.638 636.140525,309.306 C647.504525,308 658.020525,303.876 665.246525,294.968 C665.752525,294.344 665.764525,293.452 665.274525,292.816 C664.784525,292.176 663.920525,291.962 663.188525,292.29 C655.528525,295.72 646.602525,300.146 638.352525,298.502 C630.398525,296.912 620.784525,291.31 617.186525,285.196 C614.734525,279.658 614.392525,271.72 615.838525,264.488 C618.592525,250.7 631.666525,231.91 644.836525,225.784 C652.704525,232.03 662.142525,235.504 665.776525,236.84 L666.658525,237.17 C680.638525,242.544 690.032525,252.448 690.032525,266.98 C690.032525,275.162 687.320525,282.872 682.192525,289.278 C681.634525,289.974 681.694525,290.976 682.328525,291.6 C682.962525,292.224 683.966525,292.266 684.650525,291.7 C696.342525,282.04 703.046525,271.282 703.046525,256.13 C703.046525,244.256 698.934525,232.672 691.464525,223.522 C687.824525,219.06 683.540525,215.312 678.706525,212.356 L678.706525,212.356 Z M634.398525,184.3 C634.480525,184.472 634.468525,184.642 634.364525,184.806 C634.262525,184.968 634.082525,185.032 633.892525,185.032 L618.884525,185.032 C618.692525,185.032 618.512525,184.968 618.410525,184.806 C618.308525,184.644 618.294525,184.456 618.376525,184.282 L622.068525,172.164 C619.986525,170.524 616.620525,166.418 616.620525,163.256 C616.620525,157.876 621.044525,152.672 626.536525,152.672 C632.028525,152.672 636.452525,157.878 636.452525,163.26 C636.452525,166.388 633.320525,170.47 630.780525,172.372 L634.398525,184.3 L634.398525,184.3 Z M625.166525,140.456 C625.166525,144.31 621.732525,147.436 617.496525,147.436 C613.262525,147.436 609.828525,144.31 609.828525,140.456 C609.828525,136.602 613.262525,133.476 617.496525,133.476 C621.732525,133.476 625.166525,136.602 625.166525,140.456 L625.166525,140.456 Z M640.642525,141.86 C640.642525,144.898 637.526525,147.362 633.684525,147.362 C629.840525,147.362 626.726525,144.898 626.726525,141.86 C626.726525,138.82 629.840525,136.358 633.684525,136.358 C637.526525,136.358 640.642525,138.82 640.642525,141.86 L640.642525,141.86 Z M622.938525,141.302 C622.938525,142.972 621.584525,144.326 619.914525,144.326 C618.244525,144.326 616.888525,142.972 616.888525,141.302 C616.888525,139.63 618.244525,138.276 619.914525,138.276 C621.584525,138.276 622.938525,139.63 622.938525,141.302 L622.938525,141.302 Z M634.650525,142.686 C634.650525,144.388 633.272525,145.766 631.570525,145.766 C629.870525,145.766 628.492525,144.388 628.492525,142.686 C628.492525,140.986 629.870525,139.608 631.570525,139.608 C633.272525,139.608 634.650525,140.986 634.650525,142.686 L634.650525,142.686 Z" id="logo_cryptopus" sketch:type="MSShapeGroup"></path>
        </g>
    </g>
</svg>