<?xml version="1.0" encoding="UTF-8" standalone="no"?>
<svg width="118px" height="155px" viewBox="0 0 118 155" version="1.1" xmlns="http://www.w3.org/2000/svg" xmlns:xlink="http://www.w3.org/1999/xlink" xmlns:sketch="http://www.bohemiancoding.com/sketch/ns">
    <!-- Generator: Sketch 3.1.1 (8761) - http://www.bohemiancoding.com/sketch -->
    <title>logo_cryptopus</title>
    <desc>Created with Sketch.</desc>
    <defs></defs>
    <g id="Page-1" stroke="none" stroke-width="1" fill="none" fill-rule="evenodd" sketch:type="MSPage">
        <g id="Landscape" sketch:type="MSArtboardGroup" transform="translate(-540.000000, -105.000000)" fill="#1A140F">
            <path d="M637.102336,188.163047 C642.247702,187.486626 646.999409,185.150701 650.722336,181.417916 C659.55258,172.56429 659.984287,158.278757 651.707214,148.893972 C651.247702,148.373084 650.457458,148.317327 649.933555,148.767785 C649.406726,149.216776 649.335019,150.00471 649.77258,150.541738 C653.761848,155.446888 653.398921,162.526561 648.926726,167.010598 C646.607214,169.334785 643.525263,170.615729 640.247214,170.615729 C636.969165,170.615729 633.88575,169.334785 631.566238,167.010598 C630.45258,165.891056 629.575994,164.586636 628.958433,163.120813 C631.396482,157.521636 632.684287,151.237234 632.684287,144.91028 C632.684287,122.903869 626.116482,105 598.819409,105 C573.415994,105 564.957458,122.903869 564.957458,144.91028 C564.957458,151.237234 566.245263,157.521636 568.683311,163.120813 C568.06575,164.586636 567.189165,165.891056 566.074043,167.010598 C563.755994,169.334785 560.67258,170.615729 557.394531,170.615729 C554.115019,170.615729 551.033067,169.334785 548.713555,167.010598 C544.24136,162.526561 543.878433,155.446888 547.870628,150.541738 C548.306726,150.00471 548.233555,149.218243 547.706726,148.769252 C547.18136,148.318794 546.391116,148.376019 545.934531,148.896907 C537.655994,158.280224 538.089165,172.568692 546.917945,181.422318 C550.640872,185.155103 555.394043,187.49543 560.537945,188.17185 C557.002336,190.340505 553.867702,193.099009 551.202823,196.372533 C545.738433,203.08685 542.728189,211.600065 542.728189,220.312832 C542.728189,231.427551 547.633555,239.628234 556.188677,246.715243 C556.424287,246.91186 556.711116,247.350579 556.997945,247.350579 L557.022823,247.350579 C557.725263,247.350579 558.293067,246.439393 558.293067,245.735093 C558.293067,245.355065 558.126238,244.806299 557.862823,244.573 C554.191116,239.904084 552.252092,234.240346 552.252092,228.306626 C552.252092,217.645299 559.124287,210.344065 569.356482,206.401458 L569.998921,206.144682 C571.555994,205.568037 574.734531,204.385402 578.271604,202.536617 C576.107214,208.50115 571.380384,217.662907 570.505263,222.057439 C567.017945,239.560738 578.489653,255.375187 595.945263,258.873206 C597.136482,259.113841 598.351116,259.284047 599.55697,259.38529 C601.680384,259.565766 603.834531,259.533486 605.956482,259.289916 C614.271604,258.331776 621.966238,255.306224 627.253555,248.770916 C627.623799,248.313121 627.63258,247.65871 627.274043,247.192112 C626.915506,246.722579 626.283311,246.565579 625.747702,246.806215 C620.142823,249.322617 613.611604,252.569729 607.575019,251.363617 C601.755019,250.197121 594.720384,246.087243 592.087702,241.601738 C590.293555,237.538813 590.043311,231.71514 591.10136,226.409421 C593.116482,216.293925 602.682823,202.508738 612.319409,198.01443 C618.076482,202.596776 624.982336,205.145458 627.64136,206.125607 L628.286726,206.36771 C638.515994,210.310318 645.389653,217.576336 645.389653,228.237664 C645.389653,234.240346 643.405263,239.896748 639.653067,244.596477 C639.244775,245.107093 639.288677,245.842206 639.75258,246.3 C640.216482,246.757794 640.951116,246.788607 641.451604,246.373364 C650.006726,239.286355 654.912092,231.393804 654.912092,220.277617 C654.912092,211.566318 651.903311,203.067776 646.437458,196.354925 C643.774043,193.081402 640.639409,190.331701 637.102336,188.163047 L637.102336,188.163047 Z M604.681848,167.579907 C604.741848,167.706093 604.733067,167.830813 604.65697,167.951131 C604.582336,168.069981 604.450628,168.116935 604.311604,168.116935 L593.330141,168.116935 C593.189653,168.116935 593.057945,168.069981 592.983311,167.951131 C592.908677,167.83228 592.898433,167.694355 592.958433,167.566701 L595.659897,158.676393 C594.136482,157.473215 591.673555,154.460869 591.673555,152.141084 C591.673555,148.194075 594.910628,144.376187 598.929165,144.376187 C602.947702,144.376187 606.184775,148.195542 606.184775,152.144019 C606.184775,154.43886 603.893067,157.433598 602.034531,158.828991 L604.681848,167.579907 L604.681848,167.579907 Z M597.926726,135.413981 C597.926726,138.241449 595.414043,140.534822 592.314531,140.534822 C589.216482,140.534822 586.703799,138.241449 586.703799,135.413981 C586.703799,132.586514 589.216482,130.29314 592.314531,130.29314 C595.414043,130.29314 597.926726,132.586514 597.926726,135.413981 L597.926726,135.413981 Z M609.250628,136.444019 C609.250628,138.672832 606.970628,140.480533 604.159409,140.480533 C601.346726,140.480533 599.068189,138.672832 599.068189,136.444019 C599.068189,134.213738 601.346726,132.407505 604.159409,132.407505 C606.970628,132.407505 609.250628,134.213738 609.250628,136.444019 L609.250628,136.444019 Z M596.296482,136.034645 C596.296482,137.259832 595.30575,138.253187 594.083799,138.253187 C592.861848,138.253187 591.869653,137.259832 591.869653,136.034645 C591.869653,134.807991 592.861848,133.814636 594.083799,133.814636 C595.30575,133.814636 596.296482,134.807991 596.296482,136.034645 L596.296482,136.034645 Z M604.866238,137.050009 C604.866238,138.298673 603.857945,139.309636 602.61258,139.309636 C601.368677,139.309636 600.360384,138.298673 600.360384,137.050009 C600.360384,135.802813 601.368677,134.79185 602.61258,134.79185 C603.857945,134.79185 604.866238,135.802813 604.866238,137.050009 L604.866238,137.050009 Z" id="logo_cryptopus" sketch:type="MSShapeGroup"></path>
        </g>
    </g>
</svg>