<?xml version="1.0" standalone="no"?>
<!DOCTYPE svg PUBLIC "-//W3C//DTD SVG 20010904//EN"
 "http://www.w3.org/TR/2001/REC-SVG-20010904/DTD/svg10.dtd">
<svg version="1.0" xmlns="http://www.w3.org/2000/svg"
 width="18px" height="18px" viewBox="0 0 512.000000 512.000000"
 preserveAspectRatio="xMidYMid meet">
<metadata>
Created by potrace 1.13, written by Peter Selinger 2001-2015
</metadata>
<g transform="translate(0.000000,512.000000) scale(0.100000,-0.100000)"
fill="#000000" stroke="none">
<path d="M2376 5109 c-425 -45 -819 -235 -1103 -533 -275 -287 -422 -636 -453
-1071 -14 -191 -17 -206 -101 -475 -39 -124 -82 -261 -96 -305 -13 -44 -49
-129 -78 -190 -89 -182 -134 -252 -405 -625 -84 -115 -121 -186 -127 -243 l-5
-43 58 -31 c70 -36 141 -53 229 -53 113 0 192 22 380 106 6 2 25 -45 44 -108
112 -379 263 -644 499 -873 l77 -75 -65 0 c-36 0 -82 -5 -103 -11 -47 -13
-106 -63 -123 -106 -17 -39 -18 -111 -3 -150 21 -55 88 -109 154 -123 19 -4
31 -13 33 -25 8 -52 15 -68 48 -105 62 -68 92 -74 342 -66 472 14 726 47 925
118 l57 20 58 -20 c207 -75 509 -111 947 -115 197 -2 224 0 263 17 47 21 98
87 108 142 5 27 11 33 40 39 86 16 145 82 152 171 11 131 -76 213 -228 214
l-75 0 77 75 c236 229 387 494 499 873 19 63 38 110 44 108 133 -59 182 -78
243 -91 139 -29 270 -14 374 42 42 23 48 30 48 58 0 52 -71 178 -191 340 -148
199 -213 298 -288 431 -77 138 -113 223 -161 383 -21 69 -63 207 -95 306 -31
99 -58 200 -61 225 -2 25 -9 107 -15 183 -33 424 -182 771 -452 1053 -134 141
-250 228 -432 327 -312 168 -688 243 -1039 206z m-154 -808 c31 -12 112 -55
180 -96 91 -55 132 -75 158 -75 26 0 67 20 158 75 68 41 149 84 180 96 113 43
307 35 461 -19 238 -85 379 -281 432 -602 26 -155 10 -442 -35 -659 l-13 -64
39 -73 c201 -373 207 -1001 13 -1411 -206 -437 -652 -683 -1235 -683 -583 0
-1029 246 -1235 683 -194 410 -188 1038 13 1411 l39 73 -13 64 c-45 217 -61
504 -35 659 52 315 192 514 421 598 152 56 361 66 472 23z"/>
<path d="M2085 3526 c-39 -18 -80 -62 -99 -108 -78 -186 156 -351 309 -217
100 88 79 261 -37 318 -51 24 -127 27 -173 7z"/>
<path d="M2862 3519 c-117 -58 -136 -231 -37 -318 156 -137 393 37 306 224
-49 105 -164 145 -269 94z"/>
<path d="M2490 3108 c-70 -44 -229 -118 -298 -139 -36 -10 -41 -15 -36 -33 30
-101 192 -278 307 -335 37 -19 81 -34 97 -34 112 0 362 228 404 369 5 18 0 23
-36 33 -68 21 -228 95 -301 139 -37 23 -68 42 -70 41 -1 0 -31 -19 -67 -41z"/>
</g>
</svg>
