<?xml version="1.0" encoding="UTF-8" standalone="no"?>
<svg
   xmlns:sketch="http://www.bohemiancoding.com/sketch/ns"
   xmlns:dc="http://purl.org/dc/elements/1.1/"
   xmlns:cc="http://creativecommons.org/ns#"
   xmlns:rdf="http://www.w3.org/1999/02/22-rdf-syntax-ns#"
   xmlns:svg="http://www.w3.org/2000/svg"
   xmlns="http://www.w3.org/2000/svg"
   xmlns:sodipodi="http://sodipodi.sourceforge.net/DTD/sodipodi-0.dtd"
   xmlns:inkscape="http://www.inkscape.org/namespaces/inkscape"
   width="128px"
   height="170px"
   viewBox="0 0 118 155"
   version="1.1"
   id="svg3875"
   inkscape:version="0.92.5 (2060ec1f9f, 2020-04-08)"
   sodipodi:docname="cryptopussy_oidc_sleep.svg">
  <metadata
     id="metadata3888">
    <rdf:RDF>
      <cc:Work
         rdf:about="">
        <dc:format>image/svg+xml</dc:format>
        <dc:type
           rdf:resource="http://purl.org/dc/dcmitype/StillImage" />
        <dc:title>logo_cryptopus</dc:title>
      </cc:Work>
    </rdf:RDF>
  </metadata>
  <sodipodi:namedview
     pagecolor="#ffffff"
     bordercolor="#666666"
     borderopacity="1"
     objecttolerance="10"
     gridtolerance="10"
     guidetolerance="10"
     inkscape:pageopacity="0"
     inkscape:pageshadow="2"
     inkscape:window-width="1920"
     inkscape:window-height="1150"
     id="namedview3886"
     showgrid="false"
     inkscape:zoom="3.1548386"
     inkscape:cx="182.22483"
     inkscape:cy="51.182796"
     inkscape:window-x="3840"
     inkscape:window-y="26"
     inkscape:window-maximized="0"
     inkscape:current-layer="svg3875" />
  <!-- Generator: Sketch 3.1.1 (8761) - http://www.bohemiancoding.com/sketch -->
  <title
     id="title3877">logo_cryptopus</title>
  <desc
     id="desc3879">Created with Sketch.</desc>
  <defs
     id="defs3881" />
  <path
     style="display:inline;fill:#063852;fill-opacity:1;fill-rule:evenodd;stroke:none;stroke-width:0.61949664"
     inkscape:connector-curvature="0"
     sketch:type="MSShapeGroup"
     id="logo_cryptopus-1-2-8"
     d="m 76.537113,80.690128 c 3.632927,-0.367673 6.987914,-1.637355 9.616524,-3.666299 6.23467,-4.812362 6.53948,-12.577218 0.69537,-17.678292 -0.32444,-0.283128 -0.88239,-0.31343 -1.2523,-0.06859 -0.37197,0.244054 -0.4226,0.67233 -0.11365,0.964232 2.81666,2.666179 2.5604,6.514312 -0.59722,8.951597 -1.637723,1.263302 -3.813761,1.959558 -6.128257,1.959558 -2.314496,0 -4.491565,-0.696256 -6.129275,-1.959558 -0.786309,-0.608522 -1.405233,-1.317536 -1.841267,-2.114283 1.721407,-3.043411 2.630676,-6.459282 2.630676,-9.898277 0,-11.961516 -4.637261,-21.69311 -23.910598,-21.69311 -17.936309,0 -23.908529,9.731594 -23.908529,21.69311 0,3.438995 0.909262,6.854866 2.630668,9.898277 -0.436033,0.796747 -1.054957,1.505761 -1.842297,2.114283 -1.63668,1.263302 -3.813749,1.959558 -6.128245,1.959558 -2.315526,0 -4.491565,-0.696256 -6.129275,-1.959558 -3.157636,-2.437285 -3.413887,-6.285418 -0.595158,-8.951597 0.307912,-0.291902 0.256249,-0.719385 -0.11572,-0.963431 -0.370942,-0.244847 -0.928897,-0.213741 -1.251277,0.06938 -5.8451364,5.100269 -5.5392924,12.866723 0.694353,17.679085 2.628599,2.028943 5.984618,3.301026 9.61652,3.668686 -2.496348,1.178775 -4.709588,2.678144 -6.59115,4.457465 -3.85818,3.649541 -5.9835884,8.276871 -5.9835884,13.012661 0,6.041375 3.4634744,10.498825 9.5038984,14.350935 0.166355,0.10695 0.368873,0.34534 0.571385,0.34534 h 0.01758 c 0.495964,0 0.896871,-0.49527 0.896871,-0.87809 0,-0.20656 -0.11779,-0.50484 -0.303781,-0.63165 -2.592436,-2.53777 -3.961506,-5.61628 -3.961506,-8.84154 0,-5.794925 4.852177,-9.763485 12.076706,-11.906475 l 0.4536,-0.13957 c 1.099383,-0.31343 3.343619,-0.95626 5.840999,-1.96115 -1.528187,3.242 -4.865606,8.22184 -5.483493,10.61048 -2.462246,9.513855 5.637449,18.109755 17.962136,20.011085 0.841072,0.13083 1.698679,0.22332 2.55008,0.27834 1.499252,0.0981 3.020209,0.0806 4.518431,-0.0519 5.870965,-0.5208 11.303833,-2.16533 15.036985,-5.71756 0.261419,-0.24884 0.267618,-0.60454 0.01448,-0.85817 -0.253143,-0.2552 -0.699513,-0.34054 -1.077686,-0.20974 -3.957374,1.36778 -8.5688,3.13274 -12.830982,2.47715 -4.109262,-0.63404 -9.076132,-2.86796 -10.934959,-5.30604 -1.266775,-2.20839 -1.44346,-5.37382 -0.696415,-8.25773 1.422794,-5.498235 8.177193,-12.991135 14.981193,-15.433996 4.064831,2.490711 8.940774,3.876051 10.818199,4.408801 l 0.455669,0.13163 c 7.222458,2.14299 12.075668,6.09242 12.075668,11.887335 0,3.26275 -1.401097,6.33726 -4.050363,8.89179 -0.288285,0.27754 -0.257282,0.67711 0.07026,0.92595 0.32754,0.24882 0.846239,0.26558 1.199607,0.0399 6.040427,-3.85212 9.503897,-8.14209 9.503897,-14.184245 0,-4.73501 -2.12438,-9.35435 -5.983585,-13.003115 -1.880531,-1.779308 -4.093765,-3.2739 -6.591144,-4.452661 v 0 z M 53.646338,69.502223 c 0.04237,0.06859 0.03615,0.136376 -0.01758,0.201776 -0.05268,0.06461 -0.145688,0.09012 -0.243852,0.09012 H 45.63135 c -0.0992,0 -0.192183,-0.02554 -0.244883,-0.09012 -0.05268,-0.06461 -0.05995,-0.139573 -0.01758,-0.208957 l 1.907397,-4.8323 c -1.075625,-0.653985 -2.814598,-2.291333 -2.814598,-3.552247 0,-2.145385 2.285569,-4.220582 5.122888,-4.220582 2.837325,0 5.122887,2.075995 5.122887,4.222179 0,1.247353 -1.618074,2.875135 -2.930313,3.633595 l 1.869163,4.756536 v 0 z M 48.876827,52.01853 c 0,1.536863 -1.774107,2.783417 -3.962543,2.783417 -2.187406,0 -3.961506,-1.246554 -3.961506,-2.783417 0,-1.536862 1.637014,2.35729 3.82442,2.35729 2.188437,0 4.099629,-3.894152 4.099629,-2.35729 z m 7.99534,0.559875 c 0,1.211463 -1.609815,2.194033 -3.594702,2.194033 -1.985917,0 -3.594701,-0.98257 -3.594701,-2.194033 0,-1.212261 1.334612,1.849986 3.320529,1.849986 1.984888,0 3.868874,-3.062247 3.868874,-1.849986 z"
     sodipodi:nodetypes="csccccsccsssccscccccccscssscsccccccccccccccccscccsccccccsscccsssccccssssssssss" />
  <g
     aria-label="z"
     style="font-style:normal;font-weight:normal;font-size:17.20702744px;line-height:1.25;font-family:sans-serif;letter-spacing:0px;word-spacing:0px;fill:#000000;fill-opacity:1;stroke:none;stroke-width:0.43017569"
     id="text3716-7"
     transform="matrix(1.3269108,0,0,1.3269108,-23.545584,-54.563915)">
    <path
       d="m 79.940788,59.495848 q -0.309726,0.34414 -0.843144,0.929179 -0.516211,0.585039 -1.118457,1.290527 -0.602246,0.705489 -1.221699,1.479805 -0.602246,0.774316 -1.101249,1.497011 h 4.370584 v 2.133672 h -7.485056 v -1.514219 q 0.361347,-0.619453 0.860351,-1.324941 0.516211,-0.722695 1.066836,-1.44539 0.567832,-0.722695 1.118456,-1.393769 0.550625,-0.688282 1.015215,-1.238906 h -3.854374 v -2.133672 h 7.192537 z"
       style="font-style:normal;font-variant:normal;font-weight:bold;font-stretch:normal;font-family:Ubuntu;-inkscape-font-specification:Ubuntu;stroke-width:0.43017569"
       id="path3744"
       inkscape:connector-curvature="0" />
    <path
       d="m 90.38786,53.257219 q -0.382275,0.424749 -1.040638,1.146825 -0.637125,0.722075 -1.380438,1.592813 -0.743313,0.870739 -1.507863,1.826426 -0.743313,0.955688 -1.3592,1.847663 h 5.394326 v 2.633452 h -9.238315 v -1.868902 q 0.445987,-0.76455 1.061875,-1.635288 0.637125,-0.891975 1.316726,-1.78395 0.700838,-0.891975 1.380437,-1.720238 0.6796,-0.849501 1.253014,-1.529101 h -4.757202 v -2.633451 h 8.877278 z"
       style="font-style:normal;font-variant:normal;font-weight:bold;font-stretch:normal;font-size:17.20702744px;line-height:1.25;font-family:Ubuntu;-inkscape-font-specification:Ubuntu;letter-spacing:0px;word-spacing:0px;fill:#000000;fill-opacity:1;stroke:none;stroke-width:0.53093773"
       id="path3744-3"
       inkscape:connector-curvature="0" />
    <path
       d="m 103.40755,46.943147 q -0.44878,0.498641 -1.22167,1.346333 -0.74797,0.847692 -1.62059,1.869909 -0.872635,1.022218 -1.770191,2.144162 -0.872624,1.121946 -1.595655,2.169094 h 6.332756 v 3.091584 H 92.686731 v -2.194028 q 0.523574,-0.897556 1.246605,-1.919773 0.747964,-1.047148 1.545792,-2.094297 0.82276,-1.047148 1.620587,-2.019501 0.797827,-0.997285 1.470996,-1.795113 h -5.584795 v -3.091582 h 10.421634 z"
       style="font-style:normal;font-variant:normal;font-weight:bold;font-stretch:normal;font-size:17.20702744px;line-height:1.25;font-family:Ubuntu;-inkscape-font-specification:Ubuntu;letter-spacing:0px;word-spacing:0px;fill:#000000;fill-opacity:1;stroke:none;stroke-width:0.623303"
       id="path3744-3-5"
       inkscape:connector-curvature="0" />
  </g>
  <flowRoot
     xml:space="preserve"
     id="flowRoot3783"
     style="fill:black;fill-opacity:1;stroke:none;font-family:sans-serif;font-style:normal;font-weight:normal;font-size:40px;line-height:1.25;letter-spacing:0px;word-spacing:0px"><flowRegion
       id="flowRegion3785"><rect
         id="rect3787"
         width="282.10635"
         height="85.265854"
         x="-24.406954"
         y="135.44989" /></flowRegion><flowPara
       id="flowPara3789"></flowPara></flowRoot></svg>
