<?xml version="1.0" encoding="UTF-8" standalone="no"?>
<svg
   xmlns:sketch="http://www.bohemiancoding.com/sketch/ns"
   xmlns:dc="http://purl.org/dc/elements/1.1/"
   xmlns:cc="http://creativecommons.org/ns#"
   xmlns:rdf="http://www.w3.org/1999/02/22-rdf-syntax-ns#"
   xmlns:svg="http://www.w3.org/2000/svg"
   xmlns="http://www.w3.org/2000/svg"
   xmlns:sodipodi="http://sodipodi.sourceforge.net/DTD/sodipodi-0.dtd"
   xmlns:inkscape="http://www.inkscape.org/namespaces/inkscape"
   sodipodi:docname="cryptopussy_without_text.svg"
   inkscape:version="1.0 (6e3e5246a0, 2020-05-07)"
   id="svg3875"
   version="1.1"
   viewBox="0 0 94.95313 95.735325"
   height="105"
   width="103">
  <metadata
     id="metadata3888">
    <rdf:RDF>
      <cc:Work
         rdf:about="">
        <dc:format>image/svg+xml</dc:format>
        <dc:type
           rdf:resource="http://purl.org/dc/dcmitype/StillImage" />
        <dc:title>logo_cryptopus</dc:title>
      </cc:Work>
    </rdf:RDF>
  </metadata>
  <sodipodi:namedview
     borderlayer="false"
     inkscape:document-rotation="0"
     inkscape:current-layer="svg3875"
     inkscape:window-maximized="0"
     inkscape:window-y="27"
     inkscape:window-x="61"
     inkscape:cy="57.334738"
     inkscape:cx="31.382067"
     inkscape:zoom="3.1548386"
     showgrid="false"
     id="namedview3886"
     inkscape:window-height="1023"
     inkscape:window-width="1859"
     inkscape:pageshadow="2"
     inkscape:pageopacity="0"
     guidetolerance="10"
     gridtolerance="10"
     objecttolerance="10"
     borderopacity="1"
     bordercolor="#666666"
     pagecolor="#ffffff" />
  <!-- Generator: Sketch 3.1.1 (8761) - http://www.bohemiancoding.com/sketch -->
  <title
     id="title3877">logo_cryptopus</title>
  <desc
     id="desc3879">Created with Sketch.</desc>
  <defs
     id="defs3881" />
  <path
     d="m 76.710798,51.034923 c 3.938789,-0.398621 7.576238,-1.775206 10.426153,-3.974967 6.759578,-5.217523 7.090048,-13.636115 0.753921,-19.166657 -0.351756,-0.306966 -0.956688,-0.33982 -1.357742,-0.07437 -0.403283,0.2646 -0.458177,0.728934 -0.123223,1.04541 3.053792,2.89065 2.775975,7.062764 -0.647501,9.705249 -1.7756,1.369661 -4.134843,2.124536 -6.6442,2.124536 -2.509358,0 -4.869718,-0.754875 -6.64531,-2.124536 -0.85251,-0.659755 -1.523543,-1.428461 -1.996287,-2.292288 1.866335,-3.299642 2.852158,-7.003102 2.852158,-10.731631 0,-12.968578 -5.02768,-23.519491 -25.923674,-23.519491 -19.446398,0 -25.92143,10.550913 -25.92143,23.519491 0,3.728529 0.985815,7.431989 2.85215,10.731631 -0.472744,0.863827 -1.143776,1.632533 -1.997404,2.292288 -1.774475,1.369661 -4.134835,2.124536 -6.644192,2.124536 -2.510476,0 -4.869719,-0.754875 -6.6453106,-2.124536 -3.423483,-2.642485 -3.701307,-6.814599 -0.645266,-9.705249 0.333836,-0.316476 0.277824,-0.77995 -0.125466,-1.044544 -0.402172,-0.26546 -1.007103,-0.231734 -1.356624,0.07523 -6.33724896,5.52967 -6.00565596,13.949995 0.752811,19.167518 2.8499066,2.199761 6.4884736,3.578939 10.4261536,3.97756 -2.706521,1.278011 -5.106098,2.903626 -7.146073,4.832741 -4.1830076,3.95681 -6.4873556,8.973716 -6.4873556,14.10823 0,6.550006 3.755069,11.382741 10.3040486,15.55918 0.18036,0.11587 0.399929,0.374412 0.619491,0.374412 h 0.01906 c 0.53772,0 0.97238,-0.536972 0.97238,-0.952023 0,-0.223955 -0.127709,-0.547344 -0.329357,-0.68483 -2.810698,-2.751437 -4.295033,-6.089125 -4.295033,-9.58592 0,-6.282818 5.260692,-10.585505 13.093465,-12.908916 l 0.49179,-0.151322 c 1.191942,-0.339819 3.625125,-1.036754 6.332763,-2.126257 -1.656847,3.514946 -5.275251,8.914054 -5.945158,11.503791 -2.669547,10.314854 6.112076,19.634453 19.4744,21.695865 0.911883,0.1418 1.841694,0.24211 2.764776,0.30177 1.625477,0.10636 3.274485,0.0873 4.898845,-0.0562 6.365252,-0.56464 12.255523,-2.347625 16.302975,-6.198936 0.283428,-0.269786 0.290149,-0.655436 0.01569,-0.930407 -0.274456,-0.276699 -0.758407,-0.36922 -1.168418,-0.227415 -4.290553,1.482944 -9.290223,3.396495 -13.911245,2.685723 -4.455228,-0.687429 -9.840268,-3.109418 -11.855592,-5.752764 -1.373428,-2.394322 -1.564987,-5.826263 -0.755047,-8.952972 1.542581,-5.961157 8.865644,-14.084883 16.242486,-16.73342 4.407055,2.70042 9.693513,4.20238 11.729001,4.779986 l 0.494033,0.142672 c 7.83053,2.323416 13.092339,6.605347 13.092339,12.88816 0,3.53744 -1.519057,6.870808 -4.39137,9.640401 -0.312555,0.300907 -0.278942,0.73412 0.07617,1.0039 0.355117,0.26978 0.917486,0.287942 1.300605,0.04326 6.548979,-4.176439 10.304045,-8.82759 10.304045,-15.378456 0,-5.133649 -2.303228,-10.14191 -6.487353,-14.097859 -2.038856,-1.929115 -4.438426,-3.549538 -7.146064,-4.827549 v 0 z M 51.892809,38.905093 c 0.04593,0.07436 0.03919,0.147858 -0.01906,0.218763 -0.05711,0.07004 -0.157954,0.09771 -0.264382,0.09771 h -8.406342 c -0.107545,0 -0.208362,-0.0277 -0.265499,-0.09771 -0.05711,-0.07004 -0.06499,-0.151323 -0.01906,-0.226548 l 2.067983,-5.23914 c -1.166182,-0.709045 -3.051563,-2.484245 -3.051563,-3.851318 0,-2.326009 2.477995,-4.57592 5.554192,-4.57592 3.076205,0 5.554193,2.250778 5.554193,4.577653 0,1.35237 -1.754304,3.117197 -3.177022,3.939513 l 2.026532,5.156997 v 0 z M 46.721744,19.949418 c 0,1.666254 -1.923473,3.017758 -4.296157,3.017758 -2.371567,0 -4.295032,-1.351504 -4.295032,-3.017758 0,-1.666254 1.923465,-3.017758 4.295032,-3.017758 2.372684,0 4.296157,1.351504 4.296157,3.017758 z m 8.668482,0.607012 c 0,1.313458 -1.745349,2.378752 -3.897346,2.378752 -2.153116,0 -3.897345,-1.065294 -3.897345,-2.378752 0,-1.314324 1.744229,-2.378758 3.897345,-2.378758 2.151997,0 3.897346,1.064434 3.897346,2.378758 z m -9.916444,-0.241251 c 0,0.722015 -0.758407,1.307411 -1.693814,1.307411 -0.935406,0 -1.694938,-0.585396 -1.694938,-1.307411 0,-0.722876 0.759532,-1.308267 1.694938,-1.308267 0.935407,0 1.693814,0.585391 1.693814,1.308267 z m 6.560178,0.598366 c 0,0.735847 -0.771857,1.331621 -1.725184,1.331621 -0.952209,0 -1.724066,-0.595774 -1.724066,-1.331621 0,-0.734986 0.771857,-1.330754 1.724066,-1.330754 0.953327,0 1.725184,0.595768 1.725184,1.330754 z"
     id="logo_cryptopus-1-2-8"
     sketch:type="MSShapeGroup"
     inkscape:connector-curvature="0"
     style="display:inline;fill:#063852;fill-opacity:1;fill-rule:evenodd;stroke:none;stroke-width:0.671653" />
</svg>
