<?xml version="1.0" encoding="UTF-8" standalone="no"?>
<svg
   xmlns:dc="http://purl.org/dc/elements/1.1/"
   xmlns:cc="http://creativecommons.org/ns#"
   xmlns:rdf="http://www.w3.org/1999/02/22-rdf-syntax-ns#"
   xmlns:svg="http://www.w3.org/2000/svg"
   xmlns="http://www.w3.org/2000/svg"
   xmlns:xlink="http://www.w3.org/1999/xlink"
   xmlns:sodipodi="http://sodipodi.sourceforge.net/DTD/sodipodi-0.dtd"
   xmlns:inkscape="http://www.inkscape.org/namespaces/inkscape"
   width="118px"
   height="155px"
   viewBox="0 0 118 155"
   version="1.1"
   id="svg3875"
   inkscape:version="0.91 r13725"
   sodipodi:docname="logo_cryptopus.svg">
  <metadata
     id="metadata3888">
    <rdf:RDF>
      <cc:Work
         rdf:about="">
        <dc:format>image/svg+xml</dc:format>
        <dc:type
           rdf:resource="http://purl.org/dc/dcmitype/StillImage" />
      </cc:Work>
    </rdf:RDF>
  </metadata>
  <sodipodi:namedview
     pagecolor="#ffffff"
     bordercolor="#666666"
     borderopacity="1"
     objecttolerance="10"
     gridtolerance="10"
     guidetolerance="10"
     inkscape:pageopacity="0"
     inkscape:pageshadow="2"
     inkscape:window-width="1916"
     inkscape:window-height="1041"
     id="namedview3886"
     showgrid="false"
     inkscape:zoom="4.4616155"
     inkscape:cx="24.278872"
     inkscape:cy="77.890205"
     inkscape:window-x="0"
     inkscape:window-y="18"
     inkscape:window-maximized="0"
     inkscape:current-layer="svg3875" />
  <!-- Generator: Sketch 3.1.1 (8761) - http://www.bohemiancoding.com/sketch -->
  <title
     id="title3877">logo_cryptopus</title>
  <desc
     id="desc3879">Created with Sketch.</desc>
  <defs
     id="defs3881">
    <linearGradient
       inkscape:collect="always"
       id="linearGradient5292">
      <stop
         id="stop5296"
         offset="0"
         style="stop-color:#ff6540;stop-opacity:1" />
      <stop
         id="stop5294"
         offset="1"
         style="stop-color:#ffcc00;stop-opacity:1" />
    </linearGradient>
    <filter
       style="color-interpolation-filters:sRGB;"
       inkscape:label="Invert"
       id="filter4701">
      <feColorMatrix
         values="1 0 0 0 0 0 1 0 0 0 0 0 1 0 0 -0.21 -0.72 -0.07 2 0 "
         result="color2"
         id="feColorMatrix4703" />
    </filter>
    <filter
       style="color-interpolation-filters:sRGB"
       inkscape:label="Invert"
       id="filter4701-9">
      <feColorMatrix
         values="1 0 0 0 0 0 1 0 0 0 0 0 1 0 0 -0.21 -0.72 -0.07 2 0 "
         result="color2"
         id="feColorMatrix4703-7" />
    </filter>
    <filter
       style="color-interpolation-filters:sRGB"
       inkscape:label="Invert"
       id="filter4701-9-2">
      <feColorMatrix
         values="1 0 0 0 0 0 1 0 0 0 0 0 1 0 0 -0.21 -0.72 -0.07 2 0 "
         result="color2"
         id="feColorMatrix4703-7-4" />
    </filter>
    <filter
       style="color-interpolation-filters:sRGB"
       inkscape:label="Invert"
       id="filter4701-9-2-3">
      <feColorMatrix
         values="1 0 0 0 0 0 1 0 0 0 0 0 1 0 0 -0.21 -0.72 -0.07 2 0 "
         result="color2"
         id="feColorMatrix4703-7-4-6" />
    </filter>
    <filter
       style="color-interpolation-filters:sRGB"
       inkscape:label="Invert"
       id="filter4701-9-2-3-4">
      <feColorMatrix
         values="1 0 0 0 0 0 1 0 0 0 0 0 1 0 0 -0.21 -0.72 -0.07 2 0 "
         result="color2"
         id="feColorMatrix4703-7-4-6-6" />
    </filter>
    <filter
       style="color-interpolation-filters:sRGB"
       inkscape:label="Invert"
       id="filter4701-9-2-3-4-8">
      <feColorMatrix
         values="1 0 0 0 0 0 1 0 0 0 0 0 1 0 0 -0.21 -0.72 -0.07 2 0 "
         result="color2"
         id="feColorMatrix4703-7-4-6-6-8" />
    </filter>
    <filter
       style="color-interpolation-filters:sRGB"
       inkscape:label="Invert"
       id="filter4701-9-2-3-4-8-7">
      <feColorMatrix
         values="1 0 0 0 0 0 1 0 0 0 0 0 1 0 0 -0.21 -0.72 -0.07 2 0 "
         result="color2"
         id="feColorMatrix4703-7-4-6-6-8-6" />
    </filter>
    <filter
       style="color-interpolation-filters:sRGB"
       inkscape:label="Invert"
       id="filter4701-9-2-3-4-0">
      <feColorMatrix
         values="1 0 0 0 0 0 1 0 0 0 0 0 1 0 0 -0.21 -0.72 -0.07 2 0 "
         result="color2"
         id="feColorMatrix4703-7-4-6-6-0" />
    </filter>
    <filter
       style="color-interpolation-filters:sRGB"
       inkscape:label="Invert"
       id="filter4701-9-2-3-4-0-5">
      <feColorMatrix
         values="1 0 0 0 0 0 1 0 0 0 0 0 1 0 0 -0.21 -0.72 -0.07 2 0 "
         result="color2"
         id="feColorMatrix4703-7-4-6-6-0-2" />
    </filter>
    <radialGradient
       inkscape:collect="always"
       xlink:href="#linearGradient5292"
       id="radialGradient5298"
       cx="59"
       cy="97.500002"
       fx="59"
       fy="97.500002"
       r="46.600384"
       gradientTransform="matrix(0.75106677,0,0,0.65727754,14.687059,15.8465)"
       gradientUnits="userSpaceOnUse" />
  </defs>
  <rect
     y="49.301678"
     x="24"
     height="61.25877"
     width="70"
     id="rect3422-9-2-4-2"
     style="fill:url(#radialGradient5298);fill-opacity:1;fill-rule:evenodd;stroke:none;stroke-width:0.9684211px;stroke-linecap:butt;stroke-linejoin:miter;stroke-opacity:1"
     ry="6.485929" />
  <path
     inkscape:connector-curvature="0"
     id="logo_cryptopus-1-2-7"
     d="m 59.000001,43.975987 c -19.446398,0 -25.921875,10.550954 -25.921875,23.519532 0,3.728529 0.985228,7.430826 2.851563,10.730468 -0.472744,0.863827 -1.142466,1.633214 -1.996094,2.292969 -1.774474,1.36966 -4.135174,2.125 -6.644531,2.125 -2.510475,0 -4.870892,-0.75534 -6.646484,-2.125 -3.423484,-2.642486 -3.700573,-6.814429 -0.644532,-9.705078 0.333836,-0.316477 0.27829,-0.780328 -0.125,-1.044922 -0.402172,-0.26546 -1.007901,-0.232746 -1.357422,0.07422 -6.337248,5.52967 -6.00456,13.950446 0.753907,19.167968 2.849907,2.199762 6.488102,3.579896 10.425781,3.978516 -2.706521,1.278011 -5.10651,2.902916 -7.146484,4.832031 -4.183008,3.956809 -6.488282,8.974859 -6.488282,14.109379 0,6.55 3.755709,11.38215 10.304688,15.55859 0.18036,0.11587 0.399579,0.375 0.61914,0.375 l 0.01953,0 c 0.53772,0 0.972656,-0.53808 0.972656,-0.95313 0,-0.22395 -0.128429,-0.54806 -0.330078,-0.68554 -2.810698,-2.75144 -4.294922,-6.08915 -4.294922,-9.58594 0,-6.28282 5.260976,-10.58479 13.09375,-12.9082 l 0.492187,-0.15039 c 1.191942,-0.33982 3.624393,-1.03745 6.332032,-2.12696 -1.656848,3.51495 -5.275406,8.91418 -5.945313,11.50391 -2.669547,10.31485 6.112285,19.6339 19.47461,21.69531 0.911882,0.14181 1.842543,0.24306 2.765624,0.30272 1.625478,0.10636 3.274079,0.0869 4.898438,-0.0566 6.365252,-0.56463 12.255282,-2.34789 16.302734,-6.1992 0.283428,-0.26979 0.290081,-0.65472 0.01563,-0.92969 -0.274455,-0.2767 -0.757957,-0.37032 -1.167968,-0.22852 -4.290554,1.48295 -9.291087,3.39632 -13.91211,2.68555 -4.455228,-0.68743 -9.840144,-3.10861 -11.855469,-5.75195 -1.373427,-2.39433 -1.563846,-5.82642 -0.753906,-8.95313 1.542581,-5.96115 8.865346,-14.08583 16.242188,-16.734372 4.407055,2.700422 9.693027,4.203642 11.728515,4.781252 l 0.494141,0.14258 c 7.830531,2.32341 13.0918,6.60586 13.0918,12.88867 0,3.53744 -1.51831,6.87103 -4.39063,9.64062 -0.312553,0.30091 -0.27894,0.73413 0.0762,1.00391 0.35512,0.26978 0.91766,0.28765 1.30078,0.043 6.54898,-4.17644 10.304685,-8.82804 10.304685,-15.37891 0,-5.13365 -2.304155,-10.1417 -6.488275,-14.097654 -2.03886,-1.929115 -4.43885,-3.550114 -7.146485,-4.828125 3.938785,-0.398621 7.575865,-1.774848 10.425785,-3.97461 6.759565,-5.217522 7.090025,-13.635473 0.7539,-19.166015 -0.35175,-0.306965 -0.95636,-0.341626 -1.35742,-0.07617 -0.40328,0.2646 -0.458,0.730398 -0.12305,1.046875 3.053795,2.890649 2.776985,7.062592 -0.64648,9.705078 -1.7756,1.36966 -4.13517,2.125 -6.64453,2.125 -2.50936,0 -4.870894,-0.75534 -6.646486,-2.125 -0.852511,-0.659755 -1.52335,-1.429142 -1.996094,-2.292969 1.866335,-3.299642 2.853516,-7.001939 2.853516,-10.730468 0,-12.968578 -5.027834,-23.519532 -25.923829,-23.519532 z"
     style="display:inline;fill:#ffffff;fill-opacity:1;fill-rule:evenodd;stroke:none;stroke-width:2.54509807;stroke-miterlimit:4;stroke-dasharray:none;stroke-opacity:1;filter:url(#filter4701-9-2-3-4-0-5)"
     transform="matrix(0.40135297,0,0,0.39049507,35.320175,44.981753)" />
  <text
     xml:space="preserve"
     style="font-style:normal;font-weight:normal;font-size:40px;line-height:125%;font-family:sans-serif;letter-spacing:0px;word-spacing:0px;fill:#000000;fill-opacity:1;stroke:none;stroke-width:1px;stroke-linecap:butt;stroke-linejoin:miter;stroke-opacity:1"
     x="7.6150975"
     y="133.2495"
     id="text5302"
     sodipodi:linespacing="125%"><tspan
       sodipodi:role="line"
       id="tspan5304"
       x="7.6150975"
       y="133.2495"
       style="font-style:normal;font-variant:normal;font-weight:normal;font-stretch:normal;font-size:21px;font-family:'sans-serif';-inkscape-font-specification:'Verdana'">Cryptopus</tspan></text>
  <path
     style="fill:#ffcc00;fill-rule:evenodd;stroke:none;stroke-width:1"
     d="M 59.016727,16.788249 C 45.022782,16.788148 32.745975,28.734977 29,45.998168 l 6.235485,0 C 39.346959,32.650715 48.686143,30.178565 59.016727,30.158777 69.345106,30.181971 78.6813,32.653562 82.79189,45.998168 l 6.20811,0 C 85.257359,28.750284 72.998251,16.807374 59.016727,16.788249 Z"
     id="path4292-2-8"
     inkscape:connector-curvature="0"
     sodipodi:nodetypes="ccccccc" />
</svg>
