<svg width="289" height="67" viewBox="0 0 289 67" fill="none" xmlns="http://www.w3.org/2000/svg">
<rect x="3" y="3" width="283" height="61" rx="19" stroke="white" stroke-width="5"/>
<path d="M80.7266 19.8984L69.4297 51H64.8125L77.8203 16.875H80.7969L80.7266 19.8984ZM90.1953 51L78.875 19.8984L78.8047 16.875H81.7812L94.8359 51H90.1953ZM89.6094 38.3672V42.0703H70.4375V38.3672H89.6094ZM121.086 47.3203V51H103.016V47.3203H121.086ZM103.93 16.875V51H99.4062V16.875H103.93ZM118.695 31.5469V35.2266H103.016V31.5469H118.695ZM120.852 16.875V20.5781H103.016V16.875H120.852ZM144.875 42.375C144.875 41.5781 144.75 40.875 144.5 40.2656C144.266 39.6406 143.844 39.0781 143.234 38.5781C142.641 38.0781 141.812 37.6016 140.75 37.1484C139.703 36.6953 138.375 36.2344 136.766 35.7656C135.078 35.2656 133.555 34.7109 132.195 34.1016C130.836 33.4766 129.672 32.7656 128.703 31.9688C127.734 31.1719 126.992 30.2578 126.477 29.2266C125.961 28.1953 125.703 27.0156 125.703 25.6875C125.703 24.3594 125.977 23.1328 126.523 22.0078C127.07 20.8828 127.852 19.9062 128.867 19.0781C129.898 18.2344 131.125 17.5781 132.547 17.1094C133.969 16.6406 135.555 16.4062 137.305 16.4062C139.867 16.4062 142.039 16.8984 143.82 17.8828C145.617 18.8516 146.984 20.125 147.922 21.7031C148.859 23.2656 149.328 24.9375 149.328 26.7188H144.828C144.828 25.4375 144.555 24.3047 144.008 23.3203C143.461 22.3203 142.633 21.5391 141.523 20.9766C140.414 20.3984 139.008 20.1094 137.305 20.1094C135.695 20.1094 134.367 20.3516 133.32 20.8359C132.273 21.3203 131.492 21.9766 130.977 22.8047C130.477 23.6328 130.227 24.5781 130.227 25.6406C130.227 26.3594 130.375 27.0156 130.672 27.6094C130.984 28.1875 131.461 28.7266 132.102 29.2266C132.758 29.7266 133.586 30.1875 134.586 30.6094C135.602 31.0312 136.812 31.4375 138.219 31.8281C140.156 32.375 141.828 32.9844 143.234 33.6562C144.641 34.3281 145.797 35.0859 146.703 35.9297C147.625 36.7578 148.305 37.7031 148.742 38.7656C149.195 39.8125 149.422 41 149.422 42.3281C149.422 43.7188 149.141 44.9766 148.578 46.1016C148.016 47.2266 147.211 48.1875 146.164 48.9844C145.117 49.7812 143.859 50.3984 142.391 50.8359C140.938 51.2578 139.312 51.4688 137.516 51.4688C135.938 51.4688 134.383 51.25 132.852 50.8125C131.336 50.375 129.953 49.7188 128.703 48.8438C127.469 47.9688 126.477 46.8906 125.727 45.6094C124.992 44.3125 124.625 42.8125 124.625 41.1094H129.125C129.125 42.2812 129.352 43.2891 129.805 44.1328C130.258 44.9609 130.875 45.6484 131.656 46.1953C132.453 46.7422 133.352 47.1484 134.352 47.4141C135.367 47.6641 136.422 47.7891 137.516 47.7891C139.094 47.7891 140.43 47.5703 141.523 47.1328C142.617 46.6953 143.445 46.0703 144.008 45.2578C144.586 44.4453 144.875 43.4844 144.875 42.375ZM176.422 47.4375V51H154.086V47.8828L165.266 35.4375C166.641 33.9062 167.703 32.6094 168.453 31.5469C169.219 30.4688 169.75 29.5078 170.047 28.6641C170.359 27.8047 170.516 26.9297 170.516 26.0391C170.516 24.9141 170.281 23.8984 169.812 22.9922C169.359 22.0703 168.688 21.3359 167.797 20.7891C166.906 20.2422 165.828 19.9688 164.562 19.9688C163.047 19.9688 161.781 20.2656 160.766 20.8594C159.766 21.4375 159.016 22.25 158.516 23.2969C158.016 24.3438 157.766 25.5469 157.766 26.9062H153.43C153.43 24.9844 153.852 23.2266 154.695 21.6328C155.539 20.0391 156.789 18.7734 158.445 17.8359C160.102 16.8828 162.141 16.4062 164.562 16.4062C166.719 16.4062 168.562 16.7891 170.094 17.5547C171.625 18.3047 172.797 19.3672 173.609 20.7422C174.438 22.1016 174.852 23.6953 174.852 25.5234C174.852 26.5234 174.68 27.5391 174.336 28.5703C174.008 29.5859 173.547 30.6016 172.953 31.6172C172.375 32.6328 171.695 33.6328 170.914 34.6172C170.148 35.6016 169.328 36.5703 168.453 37.5234L159.312 47.4375H176.422ZM186.547 34.7578L183.078 33.8672L184.789 16.875H202.297V20.8828H188.469L187.438 30.1641C188.062 29.8047 188.852 29.4688 189.805 29.1562C190.773 28.8438 191.883 28.6875 193.133 28.6875C194.711 28.6875 196.125 28.9609 197.375 29.5078C198.625 30.0391 199.688 30.8047 200.562 31.8047C201.453 32.8047 202.133 34.0078 202.602 35.4141C203.07 36.8203 203.305 38.3906 203.305 40.125C203.305 41.7656 203.078 43.2734 202.625 44.6484C202.188 46.0234 201.523 47.2266 200.633 48.2578C199.742 49.2734 198.617 50.0625 197.258 50.625C195.914 51.1875 194.328 51.4688 192.5 51.4688C191.125 51.4688 189.82 51.2812 188.586 50.9062C187.367 50.5156 186.273 49.9297 185.305 49.1484C184.352 48.3516 183.57 47.3672 182.961 46.1953C182.367 45.0078 181.992 43.6172 181.836 42.0234H185.961C186.148 43.3047 186.523 44.3828 187.086 45.2578C187.648 46.1328 188.383 46.7969 189.289 47.25C190.211 47.6875 191.281 47.9062 192.5 47.9062C193.531 47.9062 194.445 47.7266 195.242 47.3672C196.039 47.0078 196.711 46.4922 197.258 45.8203C197.805 45.1484 198.219 44.3359 198.5 43.3828C198.797 42.4297 198.945 41.3594 198.945 40.1719C198.945 39.0938 198.797 38.0938 198.5 37.1719C198.203 36.25 197.758 35.4453 197.164 34.7578C196.586 34.0703 195.875 33.5391 195.031 33.1641C194.188 32.7734 193.219 32.5781 192.125 32.5781C190.672 32.5781 189.57 32.7734 188.82 33.1641C188.086 33.5547 187.328 34.0859 186.547 34.7578ZM224.703 16.8281H225.078V20.5078H224.703C222.406 20.5078 220.484 20.8828 218.938 21.6328C217.391 22.3672 216.164 23.3594 215.258 24.6094C214.352 25.8438 213.695 27.2344 213.289 28.7812C212.898 30.3281 212.703 31.8984 212.703 33.4922V38.5078C212.703 40.0234 212.883 41.3672 213.242 42.5391C213.602 43.6953 214.094 44.6719 214.719 45.4688C215.344 46.2656 216.047 46.8672 216.828 47.2734C217.625 47.6797 218.453 47.8828 219.312 47.8828C220.312 47.8828 221.203 47.6953 221.984 47.3203C222.766 46.9297 223.422 46.3906 223.953 45.7031C224.5 45 224.914 44.1719 225.195 43.2188C225.477 42.2656 225.617 41.2188 225.617 40.0781C225.617 39.0625 225.492 38.0859 225.242 37.1484C224.992 36.1953 224.609 35.3516 224.094 34.6172C223.578 33.8672 222.93 33.2812 222.148 32.8594C221.383 32.4219 220.469 32.2031 219.406 32.2031C218.203 32.2031 217.078 32.5 216.031 33.0938C215 33.6719 214.148 34.4375 213.477 35.3906C212.82 36.3281 212.445 37.3516 212.352 38.4609L210.055 38.4375C210.273 36.6875 210.68 35.1953 211.273 33.9609C211.883 32.7109 212.633 31.6953 213.523 30.9141C214.43 30.1172 215.438 29.5391 216.547 29.1797C217.672 28.8047 218.859 28.6172 220.109 28.6172C221.812 28.6172 223.281 28.9375 224.516 29.5781C225.75 30.2188 226.766 31.0781 227.562 32.1562C228.359 33.2188 228.945 34.4219 229.32 35.7656C229.711 37.0938 229.906 38.4609 229.906 39.8672C229.906 41.4766 229.68 42.9844 229.227 44.3906C228.773 45.7969 228.094 47.0312 227.188 48.0938C226.297 49.1562 225.195 49.9844 223.883 50.5781C222.57 51.1719 221.047 51.4688 219.312 51.4688C217.469 51.4688 215.859 51.0938 214.484 50.3438C213.109 49.5781 211.969 48.5625 211.062 47.2969C210.156 46.0312 209.477 44.625 209.023 43.0781C208.57 41.5312 208.344 39.9609 208.344 38.3672V36.3281C208.344 33.9219 208.586 31.5625 209.07 29.25C209.555 26.9375 210.391 24.8438 211.578 22.9688C212.781 21.0938 214.445 19.6016 216.57 18.4922C218.695 17.3828 221.406 16.8281 224.703 16.8281ZM241.039 16.875V51H236.516V16.875H241.039ZM260.281 45.8203L270.336 16.875H275.234L262.602 51H259.109L260.281 45.8203ZM250.883 16.875L260.844 45.8203L262.086 51H258.594L245.984 16.875H250.883Z" fill="white"/>
<path d="M34.5 16C28.8911 16 24.375 20.4603 24.375 26V27.6667C22.5305 27.6667 21 29.1782 21 31V47.6667C21 49.4884 22.5305 51 24.375 51H44.625C46.4695 51 48 49.4884 48 47.6667V31C48 29.1782 46.4695 27.6667 44.625 27.6667V26C44.625 20.4603 40.1089 16 34.5 16ZM34.5 19.3333C38.3411 19.3333 41.25 22.2063 41.25 26V27.6667H27.75V26C27.75 22.2063 30.6589 19.3333 34.5 19.3333ZM24.375 31H44.625V47.6667H24.375V31ZM34.5 36C32.6437 36 31.125 37.5 31.125 39.3333C31.125 41.1667 32.6437 42.6667 34.5 42.6667C36.3563 42.6667 37.875 41.1667 37.875 39.3333C37.875 37.5 36.3563 36 34.5 36Z" fill="white"/>
</svg>
