<svg width="289" height="67" viewBox="0 0 289 67" fill="none" xmlns="http://www.w3.org/2000/svg">
<rect x="3" y="3" width="283" height="61" rx="19" stroke="white" stroke-width="5"/>
<path d="M102.547 19.8984L91.25 51H86.6328L99.6406 16.875H102.617L102.547 19.8984ZM112.016 51L100.695 19.8984L100.625 16.875H103.602L116.656 51H112.016ZM111.43 38.3672V42.0703H92.2578V38.3672H111.43ZM142.906 47.3203V51H124.836V47.3203H142.906ZM125.75 16.875V51H121.227V16.875H125.75ZM140.516 31.5469V35.2266H124.836V31.5469H140.516ZM142.672 16.875V20.5781H124.836V16.875H142.672ZM166.695 42.375C166.695 41.5781 166.57 40.875 166.32 40.2656C166.086 39.6406 165.664 39.0781 165.055 38.5781C164.461 38.0781 163.633 37.6016 162.57 37.1484C161.523 36.6953 160.195 36.2344 158.586 35.7656C156.898 35.2656 155.375 34.7109 154.016 34.1016C152.656 33.4766 151.492 32.7656 150.523 31.9688C149.555 31.1719 148.812 30.2578 148.297 29.2266C147.781 28.1953 147.523 27.0156 147.523 25.6875C147.523 24.3594 147.797 23.1328 148.344 22.0078C148.891 20.8828 149.672 19.9062 150.688 19.0781C151.719 18.2344 152.945 17.5781 154.367 17.1094C155.789 16.6406 157.375 16.4062 159.125 16.4062C161.688 16.4062 163.859 16.8984 165.641 17.8828C167.438 18.8516 168.805 20.125 169.742 21.7031C170.68 23.2656 171.148 24.9375 171.148 26.7188H166.648C166.648 25.4375 166.375 24.3047 165.828 23.3203C165.281 22.3203 164.453 21.5391 163.344 20.9766C162.234 20.3984 160.828 20.1094 159.125 20.1094C157.516 20.1094 156.188 20.3516 155.141 20.8359C154.094 21.3203 153.312 21.9766 152.797 22.8047C152.297 23.6328 152.047 24.5781 152.047 25.6406C152.047 26.3594 152.195 27.0156 152.492 27.6094C152.805 28.1875 153.281 28.7266 153.922 29.2266C154.578 29.7266 155.406 30.1875 156.406 30.6094C157.422 31.0312 158.633 31.4375 160.039 31.8281C161.977 32.375 163.648 32.9844 165.055 33.6562C166.461 34.3281 167.617 35.0859 168.523 35.9297C169.445 36.7578 170.125 37.7031 170.562 38.7656C171.016 39.8125 171.242 41 171.242 42.3281C171.242 43.7188 170.961 44.9766 170.398 46.1016C169.836 47.2266 169.031 48.1875 167.984 48.9844C166.938 49.7812 165.68 50.3984 164.211 50.8359C162.758 51.2578 161.133 51.4688 159.336 51.4688C157.758 51.4688 156.203 51.25 154.672 50.8125C153.156 50.375 151.773 49.7188 150.523 48.8438C149.289 47.9688 148.297 46.8906 147.547 45.6094C146.812 44.3125 146.445 42.8125 146.445 41.1094H150.945C150.945 42.2812 151.172 43.2891 151.625 44.1328C152.078 44.9609 152.695 45.6484 153.477 46.1953C154.273 46.7422 155.172 47.1484 156.172 47.4141C157.188 47.6641 158.242 47.7891 159.336 47.7891C160.914 47.7891 162.25 47.5703 163.344 47.1328C164.438 46.6953 165.266 46.0703 165.828 45.2578C166.406 44.4453 166.695 43.4844 166.695 42.375ZM198.242 47.4375V51H175.906V47.8828L187.086 35.4375C188.461 33.9062 189.523 32.6094 190.273 31.5469C191.039 30.4688 191.57 29.5078 191.867 28.6641C192.18 27.8047 192.336 26.9297 192.336 26.0391C192.336 24.9141 192.102 23.8984 191.633 22.9922C191.18 22.0703 190.508 21.3359 189.617 20.7891C188.727 20.2422 187.648 19.9688 186.383 19.9688C184.867 19.9688 183.602 20.2656 182.586 20.8594C181.586 21.4375 180.836 22.25 180.336 23.2969C179.836 24.3438 179.586 25.5469 179.586 26.9062H175.25C175.25 24.9844 175.672 23.2266 176.516 21.6328C177.359 20.0391 178.609 18.7734 180.266 17.8359C181.922 16.8828 183.961 16.4062 186.383 16.4062C188.539 16.4062 190.383 16.7891 191.914 17.5547C193.445 18.3047 194.617 19.3672 195.43 20.7422C196.258 22.1016 196.672 23.6953 196.672 25.5234C196.672 26.5234 196.5 27.5391 196.156 28.5703C195.828 29.5859 195.367 30.6016 194.773 31.6172C194.195 32.6328 193.516 33.6328 192.734 34.6172C191.969 35.6016 191.148 36.5703 190.273 37.5234L181.133 47.4375H198.242ZM208.367 34.7578L204.898 33.8672L206.609 16.875H224.117V20.8828H210.289L209.258 30.1641C209.883 29.8047 210.672 29.4688 211.625 29.1562C212.594 28.8438 213.703 28.6875 214.953 28.6875C216.531 28.6875 217.945 28.9609 219.195 29.5078C220.445 30.0391 221.508 30.8047 222.383 31.8047C223.273 32.8047 223.953 34.0078 224.422 35.4141C224.891 36.8203 225.125 38.3906 225.125 40.125C225.125 41.7656 224.898 43.2734 224.445 44.6484C224.008 46.0234 223.344 47.2266 222.453 48.2578C221.562 49.2734 220.438 50.0625 219.078 50.625C217.734 51.1875 216.148 51.4688 214.32 51.4688C212.945 51.4688 211.641 51.2812 210.406 50.9062C209.188 50.5156 208.094 49.9297 207.125 49.1484C206.172 48.3516 205.391 47.3672 204.781 46.1953C204.188 45.0078 203.812 43.6172 203.656 42.0234H207.781C207.969 43.3047 208.344 44.3828 208.906 45.2578C209.469 46.1328 210.203 46.7969 211.109 47.25C212.031 47.6875 213.102 47.9062 214.32 47.9062C215.352 47.9062 216.266 47.7266 217.062 47.3672C217.859 47.0078 218.531 46.4922 219.078 45.8203C219.625 45.1484 220.039 44.3359 220.32 43.3828C220.617 42.4297 220.766 41.3594 220.766 40.1719C220.766 39.0938 220.617 38.0938 220.32 37.1719C220.023 36.25 219.578 35.4453 218.984 34.7578C218.406 34.0703 217.695 33.5391 216.852 33.1641C216.008 32.7734 215.039 32.5781 213.945 32.5781C212.492 32.5781 211.391 32.7734 210.641 33.1641C209.906 33.5547 209.148 34.0859 208.367 34.7578ZM246.523 16.8281H246.898V20.5078H246.523C244.227 20.5078 242.305 20.8828 240.758 21.6328C239.211 22.3672 237.984 23.3594 237.078 24.6094C236.172 25.8438 235.516 27.2344 235.109 28.7812C234.719 30.3281 234.523 31.8984 234.523 33.4922V38.5078C234.523 40.0234 234.703 41.3672 235.062 42.5391C235.422 43.6953 235.914 44.6719 236.539 45.4688C237.164 46.2656 237.867 46.8672 238.648 47.2734C239.445 47.6797 240.273 47.8828 241.133 47.8828C242.133 47.8828 243.023 47.6953 243.805 47.3203C244.586 46.9297 245.242 46.3906 245.773 45.7031C246.32 45 246.734 44.1719 247.016 43.2188C247.297 42.2656 247.438 41.2188 247.438 40.0781C247.438 39.0625 247.312 38.0859 247.062 37.1484C246.812 36.1953 246.43 35.3516 245.914 34.6172C245.398 33.8672 244.75 33.2812 243.969 32.8594C243.203 32.4219 242.289 32.2031 241.227 32.2031C240.023 32.2031 238.898 32.5 237.852 33.0938C236.82 33.6719 235.969 34.4375 235.297 35.3906C234.641 36.3281 234.266 37.3516 234.172 38.4609L231.875 38.4375C232.094 36.6875 232.5 35.1953 233.094 33.9609C233.703 32.7109 234.453 31.6953 235.344 30.9141C236.25 30.1172 237.258 29.5391 238.367 29.1797C239.492 28.8047 240.68 28.6172 241.93 28.6172C243.633 28.6172 245.102 28.9375 246.336 29.5781C247.57 30.2188 248.586 31.0781 249.383 32.1562C250.18 33.2188 250.766 34.4219 251.141 35.7656C251.531 37.0938 251.727 38.4609 251.727 39.8672C251.727 41.4766 251.5 42.9844 251.047 44.3906C250.594 45.7969 249.914 47.0312 249.008 48.0938C248.117 49.1562 247.016 49.9844 245.703 50.5781C244.391 51.1719 242.867 51.4688 241.133 51.4688C239.289 51.4688 237.68 51.0938 236.305 50.3438C234.93 49.5781 233.789 48.5625 232.883 47.2969C231.977 46.0312 231.297 44.625 230.844 43.0781C230.391 41.5312 230.164 39.9609 230.164 38.3672V36.3281C230.164 33.9219 230.406 31.5625 230.891 29.25C231.375 26.9375 232.211 24.8438 233.398 22.9688C234.602 21.0938 236.266 19.6016 238.391 18.4922C240.516 17.3828 243.227 16.8281 246.523 16.8281Z" fill="white"/>
<path d="M34.5 16C28.8911 16 24.375 20.4603 24.375 26V27.6667C22.5305 27.6667 21 29.1782 21 31V47.6667C21 49.4884 22.5305 51 24.375 51H44.625C46.4695 51 48 49.4884 48 47.6667V31C48 29.1782 46.4695 27.6667 44.625 27.6667V26C44.625 20.4603 40.1089 16 34.5 16ZM34.5 19.3333C38.3411 19.3333 41.25 22.2063 41.25 26V27.6667H27.75V26C27.75 22.2063 30.6589 19.3333 34.5 19.3333ZM24.375 31H44.625V47.6667H24.375V31ZM34.5 36C32.6437 36 31.125 37.5 31.125 39.3333C31.125 41.1667 32.6437 42.6667 34.5 42.6667C36.3563 42.6667 37.875 41.1667 37.875 39.3333C37.875 37.5 36.3563 36 34.5 36Z" fill="white"/>
</svg>
