<svg fill="none" xmlns="http://www.w3.org/2000/svg"><path d="M110.945 19.21c-.088 1.225-.541 2.188-1.359 2.892-.813.703-1.885 1.054-3.219 1.054-1.458 0-2.607-.49-3.445-1.468-.833-.985-1.25-2.334-1.25-4.047v-.696c0-1.093.193-2.057.578-2.89.385-.834.935-1.472 1.648-1.914.719-.448 1.553-.672 2.5-.672 1.313 0 2.37.351 3.172 1.054.802.704 1.266 1.69 1.391 2.961h-2.344c-.057-.734-.263-1.265-.617-1.593-.349-.334-.883-.5-1.602-.5-.781 0-1.367.28-1.757.843-.386.558-.584 1.425-.594 2.602v.86c0 1.228.185 2.127.555 2.695.375.567.963.851 1.765.851.724 0 1.263-.164 1.617-.492.36-.333.565-.846.618-1.54h2.343zm5.75-.374h-1.867V23h-2.344V11.625h4.227c1.344 0 2.38.3 3.109.898.729.6 1.094 1.446 1.094 2.54 0 .775-.169 1.424-.508 1.945-.333.515-.841.927-1.523 1.234l2.461 4.649V23h-2.516l-2.133-4.164zm-1.867-1.898h1.891c.588 0 1.044-.149 1.367-.446.323-.302.484-.716.484-1.242 0-.537-.153-.958-.461-1.266-.302-.307-.768-.46-1.398-.46h-1.883v3.414zm11.422-.188l2.367-5.125h2.563l-3.735 7.25V23h-2.383v-4.125l-3.734-7.25h2.57l2.352 5.125zm8.312 2.242V23h-2.343V11.625h4.437c.854 0 1.604.156 2.25.469.651.312 1.151.758 1.5 1.336.349.573.524 1.226.524 1.96 0 1.115-.383 1.995-1.149 2.641-.76.64-1.815.961-3.164.961h-2.055zm0-1.898h2.094c.62 0 1.091-.146 1.414-.438.328-.291.492-.708.492-1.25 0-.557-.164-1.008-.492-1.351-.328-.344-.781-.521-1.359-.532h-2.149v3.57zm16.547-3.57h-3.484V23h-2.344v-9.477h-3.437v-1.898h9.265v1.898zm10.469 4.046c0 1.12-.198 2.102-.594 2.946-.395.843-.963 1.494-1.703 1.953-.734.458-1.578.687-2.531.687-.943 0-1.784-.226-2.523-.68-.74-.453-1.313-1.098-1.719-1.937-.406-.844-.612-1.812-.617-2.906v-.563c0-1.12.2-2.104.601-2.953.406-.854.977-1.508 1.711-1.96.74-.46 1.583-.688 2.531-.688.948 0 1.789.229 2.524.687.739.453 1.31 1.107 1.711 1.961.406.85.609 1.83.609 2.945v.508zm-2.375-.515c0-1.193-.213-2.1-.641-2.72-.427-.619-1.036-.929-1.828-.929-.786 0-1.393.307-1.82.922-.427.61-.643 1.505-.648 2.688v.554c0 1.162.213 2.063.64 2.703.427.641 1.042.961 1.844.961.786 0 1.391-.307 1.812-.922.422-.62.636-1.52.641-2.703v-.554zm6.422 1.937V23h-2.344V11.625h4.438c.854 0 1.604.156 2.25.469.651.312 1.151.758 1.5 1.336.349.573.523 1.226.523 1.96 0 1.115-.383 1.995-1.148 2.641-.761.64-1.815.961-3.164.961h-2.055zm0-1.898h2.094c.62 0 1.091-.146 1.414-.438.328-.291.492-.708.492-1.25 0-.557-.164-1.008-.492-1.351-.328-.344-.781-.521-1.36-.532h-2.148v3.57zm16.594-5.469v7.492c0 1.245-.391 2.23-1.172 2.953-.776.724-1.839 1.086-3.188 1.086-1.328 0-2.382-.351-3.164-1.054-.781-.704-1.179-1.67-1.195-2.899v-7.578h2.344v7.508c0 .745.177 1.289.531 1.633.359.338.854.507 1.484.507 1.318 0 1.987-.692 2.008-2.078v-7.57h2.352zm7.82 8.39c0-.442-.156-.78-.469-1.015-.312-.24-.875-.49-1.687-.75-.813-.266-1.456-.526-1.93-.781-1.292-.698-1.937-1.638-1.937-2.82 0-.615.172-1.162.515-1.641.349-.485.847-.862 1.492-1.133.651-.27 1.381-.406 2.188-.406.812 0 1.536.148 2.172.445.635.292 1.127.706 1.476 1.242.355.537.532 1.146.532 1.828h-2.344c0-.52-.164-.924-.492-1.21-.328-.292-.789-.438-1.383-.438-.573 0-1.018.122-1.336.367-.318.24-.477.557-.477.953 0 .37.185.68.555.93.375.25.925.484 1.648.703 1.334.401 2.305.898 2.915 1.492.609.594.914 1.334.914 2.219 0 .984-.373 1.758-1.118 2.32-.744.558-1.747.836-3.007.836-.875 0-1.672-.159-2.391-.476-.719-.323-1.268-.763-1.648-1.32-.375-.558-.563-1.204-.563-1.938h2.352c0 1.255.75 1.883 2.25 1.883.557 0 .992-.112 1.304-.336.313-.23.469-.547.469-.953z" fill="#3FA8E0"/><path d="M27.45 4.686c-6.28-6.248-16.461-6.248-22.74 0-6.28 6.249-6.28 16.38 0 22.628 6.279 6.248 16.46 6.248 22.74 0 3.015-3 4.71-7.07 4.71-11.314a15.96 15.96 0 00-4.71-11.314zm-1.24 5.527C25.686 11.77 24 16.442 24 16.442c-.564 1.523-3.863 1.51-8.342 1.523 0 0 2.894-.407 3.73-2.015a38.073 38.073 0 001.822-4.864c-4.455 0-4.853 1.553-4.853 1.553s-2.814 7.836-3.82 10.727c-7.804 0-6.557-3.835-6.557-3.835L9.884 8.635h7.905l-.527 1.57s.643-1.57 5.002-1.57c.002 0 4.471.019 3.946 1.578zM41.45 19.15v4.023h-2.746V11.439h4.787a4.907 4.907 0 013.329 1.067 3.519 3.519 0 011.231 2.8 3.506 3.506 0 01-1.231 2.793 4.938 4.938 0 01-3.329 1.059l-2.042-.008zm0-2.095h2.041c.501.035.994-.142 1.356-.488.316-.34.484-.79.465-1.253a1.802 1.802 0 00-.465-1.281 1.763 1.763 0 00-1.356-.5H41.45v3.522zM58.88 11.437v7.689a3.804 3.804 0 01-1.34 3.112 5.347 5.347 0 01-3.51 1.103 5.402 5.402 0 01-3.54-1.103 3.8 3.8 0 01-1.34-3.112v-7.69h2.747v7.69a2.086 2.086 0 00.559 1.6c.439.37 1.005.556 1.58.52a2.184 2.184 0 001.558-.516 2.11 2.11 0 00.547-1.6v-7.693h2.74zM63.33 21.077h5.37v2.096h-8.74v-1.226l5.273-8.414h-5.297v-2.096h8.691v1.177l-5.298 8.463zM72.927 21.077h5.37v2.096h-8.74v-1.226l5.274-8.414h-5.297v-2.096h8.69v1.177l-5.297 8.463zM82.07 21.077h5.079v2.096h-7.823V11.439h2.747l-.003 9.638zM95.471 18.151H90.85v2.926h5.45v2.096h-8.2V11.439h8.213v2.096H90.85v2.523h4.625l-.004 2.093z" fill="#fff"/></svg>
