<svg width="24" height="24" xmlns="http://www.w3.org/2000/svg">

 <g>
  <title>background</title>
  <rect fill="none" id="canvas_background" height="602" width="802" y="-1" x="-1"/>
 </g>
 <g>
  <title>Layer 1</title>
  <path stroke="null" transform="rotate(135 12.000291824340819,11.578022956848145) " id="svg_1" d="m19.735398,5.184059l0.610234,-0.589716a0.859484,0.842452 0 1 0 -1.220467,-1.196281l-1.203278,1.187857l0,0l-2.43234,2.384138l0,0l-5.423344,5.307446a4.29742,4.212259 0 1 0 1.220467,1.196281l4.804516,-4.71773l1.822106,1.794422a0.859484,0.842452 0 1 0 1.211872,-1.196281l-1.822106,-1.785998l1.220467,-1.187857l0.601639,0.589716a0.859484,0.842452 0 1 0 1.220467,-1.187857l-0.610234,-0.598141zm-12.032776,13.133823a2.578452,2.527355 0 1 1 2.578452,-2.527355a2.578452,2.527355 0 0 1 -2.578452,2.527355z" fill="#000000"/>
 </g>
</svg>