<?xml version="1.0" standalone="no"?>
<!DOCTYPE svg PUBLIC "-//W3C//DTD SVG 20010904//EN"
 "http://www.w3.org/TR/2001/REC-SVG-20010904/DTD/svg10.dtd">
<svg version="1.0" xmlns="http://www.w3.org/2000/svg"
 width="512.000000pt" height="512.000000pt" viewBox="0 0 512.000000 512.000000"
 preserveAspectRatio="xMidYMid meet">

<g transform="translate(0.000000,512.000000) scale(0.100000,-0.100000)"
fill="#000000" stroke="none">
<path d="M2389 4680 c-439 -74 -785 -409 -875 -845 -8 -38 -17 -150 -21 -247
l-6 -177 -56 -6 c-196 -22 -349 -109 -457 -260 -55 -78 -87 -156 -105 -255
-20 -110 -20 -1830 0 -1940 35 -195 151 -355 322 -445 142 -74 58 -70 1369
-70 1091 0 1180 1 1239 18 138 38 263 125 346 241 56 78 80 135 102 239 17 75
18 158 18 987 0 829 -1 912 -18 987 -22 104 -46 161 -102 239 -107 150 -260
237 -457 259 l-58 6 0 122 c0 152 -15 277 -46 387 -112 390 -437 685 -834 756
-80 14 -286 17 -361 4z m338 -436 c171 -44 327 -174 407 -339 48 -97 66 -197
66 -360 l0 -135 -640 0 -640 0 0 141 c0 164 16 251 65 354 90 186 275 323 480
354 71 11 188 4 262 -15z m891 -1264 c109 -10 153 -34 193 -103 l24 -42 0
-915 0 -915 -24 -42 c-40 -69 -84 -93 -193 -103 -121 -12 -1995 -12 -2116 0
-109 10 -153 34 -193 103 l-24 42 0 915 0 915 24 42 c38 66 86 94 178 103 113
11 2021 11 2131 0z"/>
<path d="M3120 2544 c-22 -9 -174 -154 -402 -382 l-367 -366 -158 155 c-174
172 -194 184 -294 177 -146 -11 -234 -168 -169 -303 25 -52 410 -435 465 -463
90 -45 208 -46 296 -2 60 30 872 839 899 896 83 170 -97 362 -270 288z"/>
</g>
</svg>
