<?xml version="1.0" encoding="UTF-8" standalone="no"?>
<!DOCTYPE svg PUBLIC "-//W3C//DTD SVG 1.1//EN" "http://www.w3.org/Graphics/SVG/1.1/DTD/svg11.dtd">
<svg version="1.1" xmlns="http://www.w3.org/2000/svg" xmlns:xlink="http://www.w3.org/1999/xlink" preserveAspectRatio="xMidYMid meet" viewBox="0 0 640 640" width="16" height="16"><defs><path d="M373.33 226.67C373.33 153.03 313.64 93.33 240 93.33C166.36 93.33 106.67 153.03 106.67 226.67C106.67 264.75 123.21 300.95 152 325.87C75.76 360.39 26.75 436.31 26.67 520C26.67 534.73 38.61 546.67 53.33 546.67C68.06 546.67 80 534.73 80 520C80 431.63 151.63 360 240 360C328.37 360 400 431.63 400 520C400 534.73 411.94 546.67 426.67 546.67C441.39 546.67 453.33 534.73 453.33 520C453.25 436.31 404.24 360.39 328 325.87C356.79 300.95 373.33 264.75 373.33 226.67ZM160 226.67C160 182.48 195.82 146.67 240 146.67C284.18 146.67 320 182.48 320 226.67C320 270.85 284.18 306.67 240 306.67C195.82 306.67 160 270.85 160 226.67ZM488.57 126.97C464.16 105.29 432.65 93.32 400 93.33C385.27 93.33 373.33 105.27 373.33 120C373.33 134.73 385.27 146.67 400 146.67C444.18 146.67 480 182.48 480 226.67C479.92 255.17 464.69 281.48 440 295.73C431.96 300.37 426.91 308.86 426.67 318.13C426.44 327.34 430.98 336.01 438.67 341.07C439.36 341.53 442.83 343.84 449.07 348C451.15 349.12 452.3 349.74 452.53 349.87C518.16 380.99 559.77 447.37 559.2 520C559.2 534.73 571.14 546.67 585.87 546.67C600.59 546.67 612.53 534.73 612.53 520C612.98 436.8 570.29 359.3 499.73 315.2C548.63 260.14 543.63 175.86 488.57 126.97Z" id="dqTBnizkt"></path><path d="" id="ari0Jfn2a"></path><path d="M53.63 439.1L429.49 439.1L429.49 546.67L53.63 546.67L53.63 439.1Z" id="aqSsMfZdD"></path><path d="M86.93 376.99L390.43 376.99L390.43 447.42L86.93 447.42L86.93 376.99Z" id="b8fNOGk4fs"></path><path d="M154.8 355.86L314.88 355.86L314.88 384.03L154.8 384.03L154.8 355.86Z" id="f2j0r5IpC2"></path><path d="M138.79 141.36L340.49 141.36L340.49 308.47L138.79 308.47L138.79 141.36Z" id="f40NPbLR4"></path></defs><g><g><g><use xlink:href="#dqTBnizkt" opacity="1" fill="#000000" fill-opacity="1"></use><g><use xlink:href="#dqTBnizkt" opacity="1" fill-opacity="0" stroke="#000000" stroke-width="1" stroke-opacity="0"></use></g></g><g><g><use xlink:href="#ari0Jfn2a" opacity="1" fill-opacity="0" stroke="#000000" stroke-width="1" stroke-opacity="1"></use></g></g><g><use xlink:href="#aqSsMfZdD" opacity="1" fill="#000000" fill-opacity="1"></use></g><g><use xlink:href="#b8fNOGk4fs" opacity="1" fill="#000000" fill-opacity="1"></use></g><g><use xlink:href="#f2j0r5IpC2" opacity="1" fill="#000000" fill-opacity="1"></use></g><g><use xlink:href="#f40NPbLR4" opacity="1" fill="#000000" fill-opacity="1"></use></g></g></g></svg>