<svg width="80" height="80" xmlns="http://www.w3.org/2000/svg">
 <!-- Generator: Sketch 3.0.3 (7891) - http://www.bohemiancoding.com/sketch -->
 <title>logo_classic_bg</title>
 <desc>Created with Sketch.</desc>

 <g>
  <title>background</title>
  <rect fill="none" id="canvas_background" height="82" width="82" y="-1" x="-1"/>
 </g>
 <g>
  <title>Layer 1</title>
  <g fill-rule="evenodd" fill="none" id="Page-1">
   <g fill="#FFFFFF" id="logo_classic_bg">
    <path id="Fill-1" d="m102.86364,42.83649l5.06647,0c1.47321,0 2.59659,-0.40281 3.36592,-1.21193c0.77074,-0.80842 1.15576,-1.84702 1.15576,-3.11649c0,-1.29684 -0.38502,-2.3586 -1.15576,-3.18667c-0.76933,-0.82877 -1.89271,-1.2428 -3.36592,-1.2428l-5.06647,0l0,8.75789zm0,5.21123l0,10l-6.81419,0l0,-29.18035l11.88066,0c3.47009,0 6.22434,0.88631 8.26065,2.65544c2.03841,1.77193 3.05692,4.08631 3.05692,6.94526c0,2.87298 -1.01851,5.18807 -3.05692,6.94526c-2.03631,1.75579 -4.79056,2.63439 -8.26065,2.63439l-5.06647,0zm43.2607,-19.18021l0,19.12c0,3.32772 -1.1093,5.90596 -3.32721,7.73684c-2.21719,1.82947 -5.12207,2.74386 -8.71253,2.74386c-3.63198,0 -6.56009,-0.91439 -8.78503,-2.74386c-2.22424,-1.83088 -3.33776,-4.40912 -3.33776,-7.73684l0,-19.12l6.81489,0l0,19.12c0,1.79088 0.46315,3.11649 1.38733,3.97895c0.92419,0.86035 2.23128,1.29193 3.92057,1.29193c1.67452,0 2.9633,-0.42737 3.86848,-1.28281c0.90448,-0.85544 1.35637,-2.18456 1.35637,-3.98807l0,-19.12l6.81489,0zm11.03996,23.97031l13.32853,0l0,5.20983l-21.69054,0l0,-3.04561l13.0864,-20.92351l-13.14623,0l0,-5.21123l21.57018,0l0,2.92631l-13.14834,21.04421zm23.81686,0l13.32782,0l0,5.20983l-21.68912,0l0,-3.04561l13.08639,-20.92351l-13.14763,0l0,-5.21123l21.57017,0l0,2.92631l-13.14763,21.04421zm22.69095,0l12.60354,0l0,5.20983l-19.41914,0l0,-29.18035l6.8156,0l0,23.97052zm33.25656,-7.27515l-11.47875,0l0,7.27508l13.52843,0l0,5.20983l-20.34192,0l0,-29.18035l20.38204,0l0,5.21123l-13.56855,0l0,6.27298l11.47875,0l0,5.21123zm22.61233,12.48505l-6.77407,0l0,-29.18035l6.77407,0l0,29.18035zm24.72999,-23.96912l-7.71937,0l0,23.96912l-6.81489,0l0,-23.96912l-7.65813,0l0,-5.21123l22.19239,0l0,5.21123zm24.80052,13.72912l0.04012,0.1193c-0.13444,3.42105 -1.15083,6.03228 -3.04565,7.83719c-1.89835,1.80351 -4.64767,2.70386 -8.2522,2.70386c-3.61791,0 -6.55939,-1.10877 -8.82445,-3.32632c-2.26506,-2.21754 -3.39759,-5.09684 -3.39759,-8.63719l0,-6.09263c0,-3.52772 1.08818,-6.40351 3.26737,-8.62737c2.17778,-2.22456 5.00665,-3.33754 8.49293,-3.33754c3.69814,0 6.5249,0.92912 8.48025,2.78526c1.95888,1.85825 3.06326,4.49614 3.31806,7.91719l-0.03872,0.12l-6.61429,0c-0.09431,-1.89754 -0.51945,-3.30666 -1.27682,-4.22877c-0.75666,-0.9221 -2.04756,-1.38316 -3.86848,-1.38316c-1.54219,0 -2.75496,0.61825 -3.63973,1.85474c-0.88336,1.23649 -1.32609,2.85544 -1.32609,4.85965l0,6.13263c0,2.01755 0.48285,3.64842 1.44786,4.88983c0.96431,1.2435 2.2904,1.86456 3.9797,1.86456c1.63509,0 2.79437,-0.43509 3.47783,-1.30386c0.68276,-0.86737 1.072,-2.25053 1.16491,-4.14737l6.61499,0zm-297.38272,20.54c-15.58515,-15.53754 -15.58515,-40.72772 0,-56.26456c15.58233,-15.53614 40.84994,-15.53544 56.43297,0c15.58444,15.53824 15.58303,40.72561 0,56.26316c-15.58374,15.53754 -40.84853,15.53894 -56.43297,0.0014zm27.17004,-23.2494c0,0 7.18231,-1.01193 9.25733,-5.00983c2.07642,-3.99509 4.52167,-12.09333 4.52167,-12.09333c-11.05854,-0.0007 -12.04396,3.86175 -12.04396,3.86175c0,0 -6.98945,19.48421 -9.48186,26.67298c-19.36565,0 -16.27072,-9.53684 -16.27072,-9.53684l9.68669,-27.09193l19.62537,0l-1.31061,3.90176c0,0 1.5992,-3.90176 12.41561,-3.90176c0,0 11.08881,0.04842 9.78594,3.92211c-1.30076,3.87228 -5.48387,15.48912 -5.48387,15.48912c-1.3993,3.78597 -9.58604,3.75298 -20.70159,3.78597z"/>
   </g>
  </g>
 </g>
</svg>